PathFileType	4	(X/Y/Z)	D:\TRACE\spotREDO_2-26-24\spot_justBody_Motion_2_3-platform.trc
DataRate	CameraRate	NumFrames	NumMarkers	Units	OrigDataRate	OrigDataStartFrame	OrigNumFrames
100.00	100.00	      35	5	mm	100.00	6126	      7000
Frame#	Time	Left_Front			Right_Front			Left_Aft			Right_Aft			Post			
		X1	Y1	Z1	X2	Y2	Z2	X3	Y3	Z3	X4	Y4	Z4	X5	Y5	Z5	

6126	61.250	-740.98041	-56.89126	-586.74457	673.86053	-41.01967	-502.48160	-812.80231	57.86262	626.75854	757.25812	64.97819	630.15778	-30.99967	532.42596	-1046.69531	
6127	61.260	-740.57166	-57.12461	-586.77386	674.36176	-41.29539	-502.56671	-812.20068	58.19668	626.61102	757.93713	65.43707	630.04321	-30.71252	531.94025	-1046.79663	
6128	61.270	-740.12189	-57.21561	-586.78595	674.86670	-41.58609	-502.68475	-811.62610	58.63659	626.47894	758.64862	65.70581	629.79108	-30.16404	531.22504	-1047.07263	
6129	61.280	-739.47321	-57.50106	-586.87213	675.25220	-41.93019	-502.93082	-811.04816	58.99994	626.38092	759.36591	66.13424	629.77319	-29.26909	530.67474	-1047.05518	
6130	61.290	-738.71472	-57.89170	-586.94354	675.74329	-42.13808	-502.89035	-810.73645	59.16314	626.42664	759.75873	66.28507	629.71472	-28.81820	530.03540	-1047.84546	
6131	61.300	-738.23505	-58.19844	-587.07391	676.46674	-42.24065	-502.98712	-809.88708	59.61245	626.41418	760.22388	66.50876	629.64758	-28.52123	529.84210	-1047.97766	
6132	61.310	-737.65063	-58.30180	-586.92871	677.22784	-42.44751	-502.99420	-809.55493	59.87700	626.28381	760.99432	66.82056	629.52850	-28.01196	529.50708	-1048.25305	
6133	61.320	-736.76105	-58.85204	-587.03503	677.85199	-42.59015	-503.04596	-808.69427	59.98519	626.10059	761.78040	67.14591	629.44922	-27.45134	529.25989	-1048.49536	
6134	61.330	-736.24811	-58.94870	-587.10376	678.39795	-42.51305	-503.01575	-807.94476	60.03218	626.10675	762.48737	67.29769	629.48950	-26.49135	528.91205	-1048.80603	
6135	61.340	-735.61414	-58.94768	-587.05859	679.13422	-42.61525	-503.04782	-807.33881	60.24225	625.98114	762.93402	67.48048	629.48981	-25.61435	528.46912	-1049.03857	
6136	61.350	-734.93671	-59.00549	-587.13861	679.97021	-42.79977	-503.16287	-806.77734	60.51979	625.93732	763.71509	67.44170	629.38660	-24.92907	528.40570	-1049.12720	
6137	61.360	-734.38263	-58.90556	-587.14410	680.57928	-43.07444	-503.11340	-805.91040	60.55774	625.94696	764.48279	67.64101	629.29901	-24.33692	528.22687	-1049.25793	
6138	61.370	-733.73987	-58.96497	-587.11487	681.14758	-43.06711	-503.06976	-805.28851	60.50100	625.86517	765.24011	67.72459	629.32312	-23.69720	528.11902	-1049.33716	
6139	61.380	-732.90942	-58.94190	-587.07037	681.85999	-42.98360	-503.08743	-804.48853	60.53608	625.86646	765.66187	67.80395	629.33807	-22.40053	528.13074	-1049.21545	
6140	61.390	-732.23816	-59.11123	-587.16766	682.72644	-42.96561	-503.11523	-804.11774	60.63228	625.80518	766.68372	67.66202	629.43390	-22.11629	528.10510	-1049.25598	
6141	61.400	-731.15564	-59.20314	-587.10260	683.42676	-42.90854	-503.02979	-803.09888	60.58194	625.88391	767.51935	67.72336	629.41962	-21.53446	528.29889	-1049.27649	
6142	61.410	-730.37891	-58.98433	-587.25543	684.39984	-42.76093	-503.22348	-802.25745	60.41526	625.97394	768.16211	67.72029	629.51733	-20.74043	528.57861	-1048.89063	
6143	61.420	-729.53320	-58.77023	-587.32269	685.02075	-42.54927	-503.22903	-801.63110	60.24185	626.01721	768.82904	67.54020	629.67664	-19.61333	528.66949	-1048.72607	
6144	61.430	-728.87622	-58.63552	-586.99915	685.82031	-42.53923	-503.08493	-800.58252	60.15881	626.29974	769.89703	67.21430	629.62488	-18.56818	528.81451	-1048.27991	
6145	61.440	-728.14655	-58.51638	-586.99335	686.74738	-42.56374	-503.07587	-799.68683	59.89775	626.09229	770.64313	67.16303	629.61371	-18.42972	529.31006	-1048.45728	
6146	61.450	-727.00610	-58.27770	-586.91571	687.56531	-42.31742	-503.11624	-799.16382	59.71890	626.13470	771.46387	66.79912	629.70111	-17.25461	529.83936	-1048.20313	
6147	61.460	-726.34778	-58.07497	-586.84540	688.41272	-41.85559	-502.90454	-798.11469	59.36297	626.29425	772.11298	66.46610	629.82648	-16.52129	530.19836	-1047.98914	
6148	61.470	-725.46350	-57.84614	-586.82764	689.48669	-41.68443	-502.85471	-797.17096	58.92720	626.40289	773.08722	66.08938	629.89087	-14.98747	530.92242	-1047.25305	
6149	61.480	-724.61749	-57.25959	-586.85706	690.04517	-41.42410	-502.82605	-796.42450	58.72898	626.40771	774.15424	66.00906	630.05646	-14.85008	531.40308	-1047.52686	
6150	61.490	-723.60242	-56.97758	-586.76306	690.84058	-41.16243	-502.73627	-795.44690	58.46967	626.63977	774.96094	65.45724	630.08215	-13.80753	532.15771	-1047.12305	
6151	61.500	-722.85565	-56.24205	-586.62134	692.24976	-40.67231	-502.45618	-794.66632	58.10425	626.62231	775.96729	65.20100	630.31061	-12.82215	532.82050	-1046.45044	
6152	61.510	-722.21173	-55.88813	-586.60016	693.05817	-40.39103	-502.32156	-793.60083	57.35258	627.02222	776.77673	64.62244	630.55347	-12.05132	533.55139	-1045.85510	
6153	61.520	-720.87866	-55.60182	-586.55060	693.96106	-39.80385	-502.39603	-792.72174	57.03870	627.17407	777.60925	64.18877	630.48962	-10.94660	534.39728	-1045.52625	
6154	61.530	-719.91522	-55.02774	-586.57361	694.93097	-39.31303	-502.25067	-791.90045	56.49183	627.30072	778.64703	63.66396	630.84265	-9.92417	535.43292	-1044.53748	
6155	61.540	-719.02576	-54.64668	-586.41119	695.69379	-38.78660	-502.44379	-790.86493	55.97193	627.75409	779.50031	63.15508	630.88428	-8.79110	536.07013	-1043.73572	
6156	61.550	-717.85089	-54.03283	-586.15552	696.68335	-38.34395	-502.17261	-789.83368	55.43597	627.70300	780.60510	62.58006	631.11249	-8.23240	537.43323	-1043.48242	
6157	61.560	-717.11780	-53.46750	-586.08154	697.54053	-37.81196	-502.01297	-788.81439	54.81907	628.02014	781.48444	62.02507	631.40887	-6.31135	538.27124	-1042.15869	
6158	61.570	-716.17456	-52.61937	-585.94330	698.96021	-37.31018	-501.87186	-787.69604	54.25755	628.32623	782.50818	61.52567	631.42468	-6.53695	539.43994	-1042.06860	
6159	61.580	-715.27643	-51.97689	-585.90430	699.48871	-36.71384	-501.88992	-786.84619	53.62598	628.29346	783.78528	61.38206	631.73029	-5.22243	540.51080	-1041.11230	
6160	61.590	-713.97931	-51.21564	-585.86920	700.82123	-36.13889	-501.79657	-785.69305	52.74740	628.58844	784.87604	60.38013	632.17657	-3.92680	541.83551	-1040.21973	
